<svg width="115" height="124" viewBox="0 0 115 124" fill="none" xmlns="http://www.w3.org/2000/svg">
<path d="M41.8462 104.879C13.3846 113.439 13.3846 90.6115 2 87.758M81.6923 122V99.9139C81.9058 97.1926 81.5391 94.4569 80.6165 91.8887C79.694 89.3204 78.2367 86.9785 76.3415 85.0186C94.2154 83.0212 113 76.2298 113 45.0696C112.999 37.1016 109.941 29.4392 104.462 23.6683C107.056 16.6972 106.873 8.99189 103.949 2.15291C103.949 2.15291 97.2323 0.155457 81.6923 10.5993C68.6456 7.05421 54.8929 7.05421 41.8462 10.5993C26.3062 0.155457 19.5892 2.15291 19.5892 2.15291C16.6655 8.99189 16.4821 16.6972 19.0769 23.6683C13.5561 29.482 10.4959 37.2137 10.5385 45.2408C10.5385 76.1728 29.3231 82.9641 47.1969 85.1898C45.3241 87.13 43.8798 89.4439 42.9579 91.9807C42.036 94.5176 41.6572 97.2206 41.8462 99.9139V122" stroke="#102563" stroke-opacity="0.09" stroke-width="4" stroke-linecap="round" stroke-linejoin="round"/>
</svg>
