<svg width="120" height="122" viewBox="0 0 120 122" fill="none" xmlns="http://www.w3.org/2000/svg">
<path d="M117.996 90.3457V108.109C118.003 109.759 117.67 111.391 117.02 112.902C116.369 114.413 115.414 115.769 114.217 116.884C113.02 117.999 111.607 118.848 110.069 119.376C108.53 119.904 106.899 120.1 105.282 119.952C87.3343 117.972 70.0945 111.746 54.9476 101.774C40.8554 92.6826 28.9077 80.5529 19.953 66.2462C10.096 50.7988 3.9618 33.2115 2.04734 14.9089C1.90159 13.2715 2.09327 11.6212 2.61017 10.0631C3.12708 8.505 3.95788 7.07325 5.04969 5.85899C6.14149 4.64473 7.47038 3.67457 8.95174 3.01028C10.4331 2.34599 12.0345 2.00212 13.6539 2.00057H31.1513C33.9818 1.97229 36.7259 2.98989 38.872 4.86369C41.0182 6.7375 42.42 9.33965 42.8162 12.1851C43.5547 17.8699 44.9243 23.4517 46.8989 28.8238C47.6836 30.9432 47.8534 33.2465 47.3882 35.4609C46.9231 37.6752 45.8424 39.7078 44.2743 41.3177L36.8671 48.8377C45.1699 63.6618 57.2599 75.936 71.8617 84.3652L79.269 76.8452C80.8547 75.2532 82.8568 74.1561 85.0379 73.6838C87.2191 73.2116 89.4878 73.384 91.5754 74.1806C96.867 76.1853 102.365 77.5758 107.965 78.3255C110.798 78.7313 113.385 80.1801 115.235 82.3964C117.085 84.6126 118.067 87.4417 117.996 90.3457Z" stroke="#102563" stroke-opacity="0.09" stroke-width="4" stroke-linecap="round" stroke-linejoin="round"/>
</svg>
