<svg width="512" height="75" viewBox="0 0 512 75" fill="none" xmlns="http://www.w3.org/2000/svg">
<path d="M479.258 9.99313L456.851 75H443.303L471.531 0H480.185L479.258 9.99313ZM498.008 75L475.549 9.99313L474.571 0H483.276L511.607 75H498.008ZM496.926 47.1841V57.4348H456.13V47.1841H496.926Z" fill="#5DC3D6"/>
<path d="M396.325 0V75H383.396V0H396.325ZM441.398 0L411.006 36.1092L393.698 54.4471L391.432 41.6209L403.795 26.3736L425.635 0H441.398ZM427.49 75L402.816 39.4574L411.727 30.649L442.84 75H427.49Z" fill="#5DC3D6"/>
<path d="M373.403 64.7493V75H335.749V64.7493H373.403ZM339.354 0V75H326.425V0H339.354Z" fill="#5DC3D6"/>
<path d="M285.68 9.99313L263.273 75H249.725L277.953 0H286.607L285.68 9.99313ZM304.43 75L281.971 9.99313L280.993 0H289.698L318.029 75H304.43ZM303.348 47.1841V57.4348H262.552V47.1841H303.348Z" fill="#5DC3D6"/>
<path d="M214.131 0V75H201.202V0H214.131Z" fill="#5DC3D6"/>
<path d="M146.6 0V75H133.671V0H146.6ZM191.672 0L161.281 36.1092L143.973 54.4471L141.707 41.6209L154.069 26.3736L175.91 0H191.672ZM177.764 75L153.091 39.4574L162.002 30.649L193.115 75H177.764Z" fill="#5DC3D6"/>
<path d="M123.678 64.7493V75H86.0233V64.7493H123.678ZM89.6291 0V75H76.6998V0H89.6291Z" fill="#5DC3D6"/>
<path d="M35.9547 9.99313L13.5474 75H0L28.228 0H36.8819L35.9547 9.99313ZM54.7047 75L32.2459 9.99313L31.2672 0H39.9725L68.3036 75H54.7047ZM53.6229 47.1841V57.4348H12.8262V47.1841H53.6229Z" fill="#5DC3D6"/>
</svg>
