<svg width="129" height="100" viewBox="0 0 129 100" fill="none" xmlns="http://www.w3.org/2000/svg">
<path d="M73.2027 7.5253C73.5457 7.43955 74.3603 7.48242 75.6466 7.65393C77.0187 7.73968 77.962 7.86831 78.4765 8.03982C79.8486 8.55434 80.9634 8.55434 81.8209 8.03982C82.3354 7.6968 83.2358 7.6968 84.5221 8.03982C85.8084 8.38283 86.7517 8.8116 87.352 9.32612C88.1238 10.0121 88.5096 10.9126 88.5096 12.0274C88.5096 13.0564 88.1666 13.9568 87.4806 14.7286C86.1943 16.1006 85.3797 17.8157 85.0366 19.8738C84.7794 21.1601 84.1791 22.4893 83.2358 23.8613C82.3783 25.1476 81.9495 26.0052 81.9495 26.4339C81.9495 27.0342 82.5927 27.8489 83.879 28.8779C85.1653 29.8212 86.7946 30.7645 88.7669 31.7078C91.4253 32.9941 93.1403 34.1517 93.9121 35.1808C94.5981 36.2098 95.2413 36.853 95.8416 37.1102C97.0421 37.6247 97.085 38.4823 95.9702 39.6828C95.3699 40.3688 94.5553 40.5832 93.5262 40.326C92.4972 39.983 89.8817 38.7395 85.6798 36.5957C84.908 36.1669 84.2649 35.5238 83.7503 34.6662C83.4073 33.9802 82.6355 33.2942 81.435 32.6082C80.3202 31.8364 79.334 31.4505 78.4765 31.4505C77.8762 31.4505 77.3617 31.7935 76.9329 32.4795C76.5042 33.1656 76.2898 33.9373 76.2898 34.7949C76.2898 35.3951 75.9039 36.2098 75.1321 37.2388C74.3603 38.2679 73.4599 39.0825 72.4309 39.6828C71.6591 40.2831 71.2732 40.7547 71.2732 41.0977C71.2732 42.9843 69.7725 43.2416 66.7712 41.8695C65.4849 41.2693 64.756 40.7119 64.5844 40.1973C64.4129 39.6828 64.6702 38.7395 65.3562 37.3675C66.2138 35.4809 66.9855 34.6662 67.6716 34.9235C68.2718 35.1808 68.8292 34.9664 69.3438 34.2804C69.944 33.5086 70.2442 32.5653 70.2442 31.4505C70.2442 30.8502 70.6729 30.0784 71.5305 29.1352C73.5886 26.9913 74.6176 25.019 74.6176 23.2182C74.6176 21.1601 75.3894 19.8738 76.9329 19.3593C77.962 19.0163 78.8624 18.1587 79.6342 16.7867C80.4059 15.4146 80.6632 14.3427 80.406 13.5709C80.1487 12.9706 79.2483 12.6276 77.7047 12.5419C76.1612 12.4561 74.7462 12.6276 73.4599 13.0564C71.5734 13.6567 69.944 13.7853 68.572 13.4423C67.8002 13.185 66.9427 13.185 65.9994 13.4423C64.7988 13.7853 63.9842 13.6138 63.5554 12.9278C63.2124 12.156 63.4268 11.2556 64.1986 10.2265C64.5416 9.79776 64.8417 9.5405 65.099 9.45475C65.3562 9.369 65.8279 9.41187 66.5139 9.58338C67.2857 9.66913 67.9288 9.62626 68.4434 9.45475C68.9579 9.28324 70.1584 8.8116 72.045 8.03982C72.3023 7.95407 72.6881 7.78256 73.2027 7.5253ZM122.082 8.29708C122.425 7.86831 122.983 7.73968 123.754 7.91119C124.783 8.0827 125.426 8.33995 125.684 8.68297C126.027 8.94023 126.284 9.71201 126.456 10.9983C126.799 12.6276 127.099 13.8282 127.356 14.6C128.042 16.8295 128.085 18.6304 127.485 20.0024C127.056 21.0315 126.841 23.0895 126.841 26.1767C126.927 29.178 127.227 31.7935 127.742 34.0231C128.256 36.2527 128.385 37.882 128.128 38.911C127.956 39.8543 127.227 40.5832 125.941 41.0977C123.283 42.384 121.739 41.8695 121.31 39.5542C121.139 38.6967 120.882 38.0964 120.539 37.7534C119.595 36.9816 119.252 35.438 119.509 33.1227C119.767 30.3786 119.424 28.5778 118.48 27.7202C117.537 26.7769 115.651 26.6054 112.821 27.2057C107.418 28.3205 104.717 28.1919 104.717 26.8198C104.717 26.4768 104.46 25.8336 103.945 24.8904C103.431 23.7756 103.388 23.0895 103.817 22.8323C104.245 22.4893 105.532 22.4035 107.676 22.575C109.648 22.6608 111.02 22.4464 111.792 21.9319C112.478 21.3316 113.85 21.0315 115.908 21.0315C117.794 21.0315 119.038 20.86 119.638 20.5169C120.238 20.1739 120.839 19.1878 121.439 17.5584C121.868 16.6152 122.082 15.972 122.082 15.629C122.082 15.286 121.911 14.5142 121.568 13.3137C120.967 10.9126 121.139 9.24037 122.082 8.29708ZM112.949 61.4213C114.064 60.9068 115.222 61.0783 116.422 61.9358C116.68 62.1073 117.323 62.4932 118.352 63.0935C119.895 63.8653 120.581 65.366 120.41 67.5955C120.238 68.7103 120.41 69.8251 120.924 70.9399C121.439 71.7975 121.825 73.2124 122.082 75.1847C122.425 77.0713 122.468 78.4862 122.211 79.4295C122.039 80.2013 121.911 82.2594 121.825 85.6038C121.739 88.0906 121.61 89.5484 121.439 89.9772C121.353 90.4917 121.053 90.8347 120.539 91.0062C119.767 91.1777 119.295 91.4779 119.124 91.9066C118.609 93.3644 117.366 93.7503 115.393 93.0643C113.507 92.464 112.435 91.3921 112.178 89.8486C112.092 88.991 111.92 88.2192 111.663 87.5332C110.977 85.3036 111.063 83.3742 111.92 81.7449C112.263 80.9731 112.435 79.5153 112.435 77.3714C112.349 75.2276 112.435 73.4268 112.692 71.969C113.207 69.6536 112.864 68.2387 111.663 67.7242C110.463 67.2097 107.633 67.2954 103.173 67.9814C99.6576 68.496 97.085 68.5388 95.4557 68.1101C94.0836 67.7671 92.8402 67.6813 91.7254 67.8528C90.2676 68.0243 89.1099 67.7242 88.2524 66.9524C87.4806 66.0949 87.4806 65.2373 88.2524 64.3798C88.7669 63.8653 89.6673 63.6938 90.9536 63.8653C92.2399 63.951 92.9688 63.8653 93.1403 63.608C93.3118 63.4365 94.3838 63.3507 96.3561 63.3507C98.4142 63.3507 99.872 63.1364 100.73 62.7076C101.673 62.1931 103.045 61.8501 104.846 61.6786C106.646 61.4213 108.276 61.4213 109.734 61.6786C111.191 61.8501 112.263 61.7643 112.949 61.4213Z" fill="#B6BB79"/>
<path d="M18.9601 0.707464C19.6461 -0.235821 20.718 -0.235821 22.1758 0.707464C23.6336 1.565 24.4912 2.8513 24.7484 4.56637C25.2629 7.48198 25.8203 9.19705 26.4206 9.71158C26.5921 9.96883 28.0499 10.1403 30.794 10.2261C33.5381 10.3118 35.3818 10.269 36.3251 10.0975C37.4399 9.8402 38.5976 10.0546 39.7981 10.7406C41.0844 11.4266 41.599 12.1127 41.3417 12.7987C41.1702 13.3132 40.2269 13.8706 38.5118 14.4709C36.8825 15.0712 35.4247 15.4142 34.1384 15.4999C32.2518 15.6714 30.7083 15.8858 29.5077 16.1431C27.8784 16.4003 26.635 16.4861 25.7775 16.4003C22.4331 16.2288 19.9462 16.3575 18.3169 16.7862C16.9449 17.215 15.3156 17.4294 13.429 17.4294C11.4567 17.4294 10.1275 17.558 9.44145 17.8153C8.75542 18.0725 7.94076 17.9439 6.99748 17.4294C6.05419 16.9149 5.53967 16.3575 5.45392 15.7572C5.36816 15.0712 5.62542 14.5138 6.2257 14.085C6.82597 13.5705 7.512 13.3132 8.28378 13.3132C9.05556 13.3132 10.1275 13.0131 11.4995 12.4128C12.8716 11.7268 14.4151 11.1694 16.1302 10.7406C17.8453 10.3118 18.8314 10.0117 19.0887 9.8402C19.346 9.66869 19.4317 8.85404 19.346 7.39623C19.346 5.85267 19.2173 4.82363 18.9601 4.30911C18.1883 3.02281 18.1883 1.82226 18.9601 0.707464ZM21.0182 23.9895C23.162 22.446 24.8342 21.717 26.0347 21.8028C27.321 21.8028 29.6792 22.7032 33.1094 24.504C34.3957 25.1043 35.2103 25.5759 35.5534 25.919C35.9821 26.262 36.368 26.7765 36.711 27.4625C37.2255 28.4058 37.6114 29.8207 37.8687 31.7073C38.126 33.5081 38.126 34.6229 37.8687 35.0517C37.6114 35.5662 37.4828 36.2951 37.4828 37.2384C37.4828 38.8677 36.7968 40.0254 35.4247 40.7114C34.6529 41.1402 33.7525 41.7833 32.7235 42.6409C31.0942 44.0987 29.1647 44.8276 26.9351 44.8276C25.8203 44.8276 24.8771 44.9562 24.1053 45.2135C20.8466 46.071 18.7028 45.9424 17.6738 44.8276C16.9877 44.0558 16.0873 43.3269 14.9725 42.6409C13.9435 41.8691 13.3861 41.2259 13.3004 40.7114C12.7001 37.8816 12.3571 35.995 12.2713 35.0517C12.2713 34.0227 12.5286 33.1223 13.0431 32.3505C13.3861 31.7502 13.8149 30.764 14.3294 29.392C15.2727 27.1624 16.2588 26.0476 17.2879 26.0476C17.6309 26.0476 18.8743 25.3616 21.0182 23.9895ZM27.7069 29.5206C27.0209 29.0061 25.9918 28.7488 24.6198 28.7488C23.3335 28.7488 22.3045 29.0061 21.5327 29.5206C20.4179 30.1209 19.4317 31.5787 18.5742 33.894C17.8024 36.2094 17.7166 37.6672 18.3169 38.2675C19.9462 39.6395 22.2616 40.0254 25.2629 39.4251C28.3501 38.7391 30.4081 37.4099 31.4372 35.4376C32.0375 34.237 32.1661 33.4224 31.8231 32.9936C31.5658 32.4791 30.1938 31.3214 27.7069 29.5206ZM32.0803 57.3047C32.6806 57.0474 33.6668 56.9188 35.0388 56.9188C36.4966 56.9188 37.3971 57.0474 37.7401 57.3047C38.2546 57.562 39.2407 57.562 40.6986 57.3047C42.2421 56.9617 43.9143 56.8759 45.7151 57.0474C47.859 57.219 49.3168 57.3476 50.0886 57.4333C52.5754 57.6048 53.9474 58.2051 54.2047 59.2342C54.5477 60.1774 53.6902 61.2494 51.6321 62.4499C50.4316 63.1359 49.4883 63.5218 48.8022 63.6076C48.202 63.6933 46.8299 63.6505 44.6861 63.4789C43.4855 63.3074 41.9849 63.3503 40.184 63.6076C38.469 63.8648 37.2255 64.2507 36.4538 64.7653C35.7677 65.194 33.9669 65.3227 31.0513 65.1511C22.819 64.8081 17.5451 64.851 15.2298 65.2798C11.1136 66.0516 8.11227 66.1373 6.2257 65.537C5.28241 65.194 4.33912 65.0654 3.39583 65.1511C2.62405 65.2369 2.10953 65.2369 1.85227 65.1511C1.59501 65.0654 1.252 64.6795 0.823233 63.9935C0.137206 63.0502 -0.120055 62.3642 0.0514519 61.9354C0.308712 61.5066 0.994739 61.2922 2.10953 61.2922C3.22433 61.2922 4.382 61.0779 5.58255 60.6491C6.69734 60.2203 8.32665 60.0059 10.4705 60.0059C12.5286 60.0059 14.0293 59.7487 14.9725 59.2342C16.3446 58.6339 19.8176 58.2051 25.3916 57.9479C29.422 57.6906 31.6516 57.4762 32.0803 57.3047ZM13.1717 74.6698C13.772 74.241 14.4151 74.1552 15.1012 74.4125C16.4732 74.6698 17.2879 75.0985 17.5451 75.6988C17.8882 76.2133 17.931 77.371 17.6738 79.1718C17.4165 80.8011 17.3736 82.602 17.5451 84.5743C17.8024 87.0611 17.931 88.5618 17.931 89.0763C18.0168 90.7914 18.4884 91.8204 19.346 92.1635C20.2035 92.5922 22.6903 92.8495 26.8065 92.9352C30.4081 93.021 32.8521 93.1925 34.1384 93.4498C35.1675 93.707 35.8964 93.7499 36.3251 93.5784C36.7539 93.4926 37.9973 92.8924 40.0554 91.7776C40.9987 91.1773 41.8562 90.8343 42.628 90.7485C43.3998 90.6628 45.5436 90.6199 49.0595 90.6199C53.3472 90.6199 56.1342 90.7914 57.4205 91.1344C58.7925 91.5632 59.5214 92.4207 59.6072 93.707C59.6929 95.2506 59.0927 96.2367 57.8064 96.6655C56.5201 97.0943 53.9475 97.18 50.0886 96.9228C47.859 96.7513 46.2296 96.9228 45.2006 97.4373C44.1716 97.9518 41.8991 98.2948 38.3832 98.4663C34.7816 98.7236 32.552 98.938 31.6945 99.1095C31.4372 99.1095 30.9655 99.1952 30.2795 99.3667C29.5935 99.5383 29.1218 99.6669 28.8646 99.7526C27.321 100.181 26.0776 100.053 25.1343 99.3667C24.8771 99.1095 23.4192 98.9809 20.7609 98.9809C18.1883 99.0666 16.7734 99.2381 16.5161 99.4954C16.3446 99.7526 15.7872 99.8384 14.8439 99.7526C13.9006 99.7526 13.3004 99.624 13.0431 99.3667C12.0998 98.6807 11.328 96.6655 10.7277 93.3211C10.1275 90.0625 10.1275 87.7043 10.7277 86.2465C10.985 85.5604 11.1136 84.4885 11.1136 83.0307C11.1136 81.5729 11.2423 80.3724 11.4995 79.4291C11.8425 78.4 12.0998 77.4568 12.2713 76.5992C12.3571 75.8274 12.6572 75.1843 13.1717 74.6698Z" fill="#B6BB79"/>
</svg>
