<svg width="117" height="64" viewBox="0 0 117 64" fill="none" xmlns="http://www.w3.org/2000/svg">
<path d="M2.07172 46.5514L18.5175 4.64838C19.1768 2.96856 21.5481 2.95208 22.2307 4.62257L39.3523 46.5256C39.8899 47.8412 38.9222 49.282 37.5009 49.282H3.93347C2.52409 49.282 1.55682 47.8633 2.07172 46.5514Z" stroke="#214DD0" stroke-width="3.5" stroke-linecap="round" stroke-linejoin="round"/>
<path d="M20.6068 36.5641V62" stroke="#214DD0" stroke-width="3.5" stroke-linecap="round" stroke-linejoin="round"/>
<path d="M11.5983 62H29.6154" stroke="#214DD0" stroke-width="3.5" stroke-linecap="round" stroke-linejoin="round"/>
<path d="M57.1713 1.75C60.9402 1.75016 64.5664 4.04161 67.3305 8.1875C70.0865 12.3215 71.848 18.1337 71.8481 24.6406C71.8481 31.1477 70.0865 36.9597 67.3305 41.0938C64.5664 45.2399 60.9403 47.5321 57.1713 47.5322C53.4022 47.5322 49.7754 45.24 47.0112 41.0938C44.2552 36.9597 42.4936 31.1476 42.4936 24.6406C42.4937 18.1337 44.2552 12.3215 47.0112 8.1875C49.7753 4.04141 53.4023 1.75 57.1713 1.75Z" stroke="#85A5F2" stroke-width="3.5" stroke-linecap="round" stroke-linejoin="round"/>
<path d="M92.6756 1.75C96.4445 1.75016 100.071 4.04161 102.835 8.1875C105.591 12.3215 107.352 18.1337 107.352 24.6406C107.352 31.1477 105.591 36.9597 102.835 41.0938C100.071 45.2399 96.4446 47.5321 92.6756 47.5322C88.9065 47.5322 85.2796 45.24 82.5154 41.0938C79.7595 36.9597 77.9979 31.1476 77.9979 24.6406C77.9979 18.1337 79.7595 12.3215 82.5154 8.1875C85.2796 4.04141 88.9066 1.75 92.6756 1.75Z" stroke="#85A5F2" stroke-width="3.5" stroke-linecap="round" stroke-linejoin="round"/>
<path d="M65.3846 22.7863H76.5128" stroke="#85A5F2" stroke-width="3.5" stroke-linecap="round" stroke-linejoin="round"/>
<path d="M65.3846 30.2051H77.0427" stroke="#85A5F2" stroke-width="3.5" stroke-linecap="round" stroke-linejoin="round"/>
<path d="M48.0299 55.1111L49.0474 60.3793C49.2291 61.3202 50.0528 62 51.0111 62H109.5" stroke="#85A5F2" stroke-width="3.5" stroke-linecap="round" stroke-linejoin="round"/>
<path d="M79.4274 22.7863C83.6667 24.1994 95.0069 26.1778 106.453 22.7863M92.4103 22.7863V3.44444" stroke="#85A5F2" stroke-width="3.5" stroke-linecap="round" stroke-linejoin="round"/>
<path d="M114.667 31.5299V55.906" stroke="#85A5F2" stroke-width="3.5" stroke-linecap="round" stroke-linejoin="round"/>
</svg>
