<svg width="324" height="100" viewBox="0 0 324 100" fill="none" xmlns="http://www.w3.org/2000/svg">
<path d="M315.301 87.973C315.391 87.5226 315.616 87.2073 315.976 87.0271C316.427 86.8469 316.922 86.7118 317.463 86.6217C317.823 86.5316 318.274 86.4866 318.814 86.4866C320.346 86.4866 321.562 87.0721 322.463 88.2433C323.454 89.3244 323.949 90.6307 323.949 92.1622C323.949 93.3334 323.634 94.3694 323.003 95.2703C322.373 96.0811 321.427 96.6667 320.165 97.027C318.274 98.6486 316.021 99.3243 313.409 99.054C312.688 99.6847 311.742 100 310.571 100C308.949 100 307.463 99.4144 306.112 98.2432C305.211 98.0631 304.13 97.6126 302.868 96.8919C301.607 96.0811 300.976 95.3604 300.976 94.7297C299.715 94.5496 298.409 93.8289 297.058 92.5676C295.796 91.3063 295.346 89.7748 295.706 87.973C294.715 86.892 294.13 85.7658 293.949 84.5947C292.868 84.0541 292.058 83.2433 291.517 82.1623C291.067 81.0812 290.931 79.9551 291.112 78.7839C289.94 77.7028 289.355 76.0812 289.355 73.9191C289.355 73.1083 289.445 72.0722 289.625 70.811C288.364 69.82 287.733 68.4687 287.733 66.757C287.733 65.2254 288.229 63.9642 289.22 62.9732C288.139 61.8921 287.598 60.4958 287.598 58.7841C287.598 58.1534 287.778 57.3877 288.139 56.4868C287.598 55.4057 287.328 54.3246 287.328 53.2435C287.328 51.8021 287.733 50.676 288.544 49.8652C288.004 48.7841 287.733 47.613 287.733 46.3517C287.733 45.2706 287.868 44.3247 288.139 43.5139C288.499 42.613 288.904 41.9373 289.355 41.4869C288.364 40.3157 287.868 39.0545 287.868 37.7031C287.868 36.9824 288.004 36.2166 288.274 35.4058C287.463 35.6761 286.562 35.8112 285.571 35.8112C284.04 35.8112 282.913 35.4959 282.193 34.8653C281.112 35.1356 280.166 35.2707 279.355 35.2707C277.733 35.2707 276.067 34.7752 274.355 33.7842C273.454 34.3248 272.508 34.595 271.517 34.595C270.076 34.595 268.905 34.0094 268.004 32.8383C267.013 31.577 266.517 30.1806 266.517 28.6491C266.517 27.2978 266.968 26.1717 267.869 25.2708C268.679 24.2798 269.896 23.7393 271.517 23.6492C272.598 23.1987 273.589 22.9735 274.49 22.9735C276.292 22.9735 277.868 23.4239 279.22 24.3248C280.391 23.8744 281.697 23.6492 283.139 23.6492C284.4 23.6492 285.391 23.8744 286.112 24.3248C286.202 23.9645 286.562 23.6492 287.193 23.3789C287.913 23.0185 288.499 22.8834 288.949 22.9735C288.589 22.1627 288.409 21.0816 288.409 19.7303C288.409 18.1087 288.769 17.2528 289.49 17.1627C288.859 16.2618 288.544 14.9555 288.544 13.2438C288.544 10.9015 289.13 9.2799 290.301 8.379C290.211 6.57721 290.571 5.22587 291.382 4.32497C292.193 3.42408 293.229 2.97363 294.49 2.97363C295.751 2.97363 296.922 3.42408 298.003 4.32497C299.085 5.13578 299.625 6.21685 299.625 7.56819C299.625 8.46909 299.265 9.50512 298.544 10.6763C299.445 11.4871 299.895 12.8384 299.895 14.7303C299.895 15.5411 299.76 16.397 299.49 17.2979C299.31 18.1087 299.04 18.7393 298.679 19.1897C299.22 19.5501 299.49 20.2708 299.49 21.3519C299.49 22.2528 299.265 23.469 298.814 25.0005C299.625 24.7302 300.481 24.5951 301.382 24.5951C302.733 24.5951 303.769 24.9104 304.49 25.541C305.391 25.0906 306.112 24.8654 306.652 24.8654C307.553 24.8654 308.274 25.2257 308.814 25.9464C309.445 25.496 310.211 25.2708 311.112 25.2708C312.373 25.2708 313.364 25.7663 314.084 26.7572C315.796 26.7572 317.057 27.1627 317.868 27.9735C318.769 28.6942 319.22 29.6401 319.22 30.8113C319.22 32.2527 318.634 33.6491 317.463 35.0004C316.382 36.2617 315.12 36.8923 313.679 36.8923C312.868 36.8923 312.057 36.622 311.247 36.0815C310.346 36.8022 309.175 37.1626 307.733 37.1626C306.382 37.1626 305.256 36.8473 304.355 36.2166C303.184 36.6671 302.328 36.8923 301.787 36.8923C301.067 36.8923 300.211 36.577 299.22 35.9464C300.03 37.0274 300.436 38.1986 300.436 39.4599C300.436 40.8112 299.895 42.0274 298.814 43.1085C299.625 44.1896 300.03 45.5409 300.03 47.1625C300.03 48.6039 299.625 49.9553 298.814 51.2165C299.895 51.9373 300.436 53.1084 300.436 54.73C300.436 56.0814 300.03 57.2525 299.22 58.2435C300.121 59.2345 300.571 60.9912 300.571 63.5137C300.571 64.5948 300.436 65.4957 300.166 66.2164C300.796 67.1173 301.112 68.0633 301.112 69.0542C301.112 69.5948 300.976 70.3155 300.706 71.2164C300.526 72.0272 300.391 72.7029 300.301 73.2434C301.382 74.5047 301.922 75.7209 301.922 76.892C303.454 78.0632 304.22 79.4596 304.22 81.0812C306.021 82.0722 306.922 83.7388 306.922 86.0812C307.103 86.3514 307.283 86.5316 307.463 86.6217C307.643 86.7118 307.778 86.8019 307.868 86.892L308.814 86.7568C310.166 86.7568 311.247 87.1622 312.057 87.973C312.778 87.7929 313.364 87.7028 313.814 87.7028C314.084 87.7028 314.58 87.7929 315.301 87.973Z" fill="#6B97C0"/>
<path d="M255.676 23.9197C256.126 25.7215 256.351 27.2079 256.351 28.3791C256.351 28.8296 256.261 29.9557 256.081 31.7575C256.531 32.6584 256.757 34.0547 256.757 35.9466C256.757 37.5682 256.531 38.8295 256.081 39.7304C256.531 40.6313 256.757 41.4871 256.757 42.2979C256.757 43.4691 256.351 44.5952 255.54 45.6763C256.171 47.2078 256.486 48.7844 256.486 50.406C256.486 51.6672 256.261 53.0636 255.811 54.5951C256.351 55.496 256.622 56.6222 256.622 57.9735C256.622 59.3248 256.306 60.8113 255.676 62.4329C256.396 63.4239 256.757 64.4599 256.757 65.541C256.757 66.6221 256.396 67.6581 255.676 68.6491C256.036 69.2797 256.216 70.0004 256.216 70.8112C256.216 71.622 255.991 72.4779 255.54 73.3788C256.261 74.64 256.622 75.586 256.622 76.2166C256.622 76.7571 256.306 77.5229 255.676 78.5139C256.036 79.7751 256.216 80.7211 256.216 81.3517C256.216 82.703 255.721 83.8742 254.73 84.8652C255.811 86.7571 256.351 89.0544 256.351 91.757C256.351 95.0903 255.405 97.3876 253.513 98.6489C252.613 99.2795 251.667 99.5948 250.676 99.5948C248.964 99.5948 247.523 98.8291 246.351 97.2975C245.27 95.6759 244.73 93.9192 244.73 92.0273C244.73 91.1264 244.865 90.2706 245.135 89.4598C244.324 88.3787 243.919 86.8472 243.919 84.8652C243.919 82.8832 244.324 81.4418 245.135 80.5409C244.955 80.0905 244.865 79.4598 244.865 78.649C244.865 78.0184 244.91 77.5229 245 77.1625C244.55 76.4418 244.324 75.4959 244.324 74.3247C244.324 72.8833 244.685 71.6671 245.405 70.6761C244.685 69.9554 244.324 69.0095 244.324 67.8383C244.324 67.0275 244.55 66.1716 245 65.2707C244.64 64.55 244.459 63.3789 244.459 61.7572C244.459 59.7753 244.91 58.514 245.811 57.9735C244.91 56.3519 244.459 54.7753 244.459 53.2438C244.459 52.433 244.685 51.6672 245.135 50.9465C244.505 49.6853 244.189 48.2438 244.189 46.6222C244.189 44.7303 244.64 43.1538 245.541 41.8925C245.18 41.0817 245 40.316 245 39.5952C245 38.9646 245.27 38.2439 245.811 37.4331C245.09 36.4421 244.73 35.361 244.73 34.1899C244.73 33.1989 245 32.5232 245.541 32.1629C244.91 31.4421 244.595 30.3611 244.595 28.9196C244.595 27.8386 244.865 27.0278 245.405 26.4872C244.595 25.226 244.189 23.4242 244.189 21.0819C244.189 19.0098 244.505 17.5684 245.135 16.7576C244.324 15.3161 243.919 13.6945 243.919 11.8927C243.919 10.2711 244.279 9.09996 245 8.37925C245.09 6.84772 245.676 5.63152 246.757 4.73062C247.838 3.73963 249.099 3.24414 250.541 3.24414C251.532 3.24414 252.432 3.51441 253.243 4.05495C254.955 5.04593 255.811 6.57745 255.811 8.64951C255.811 10.3612 255.36 12.0279 254.459 13.6495C255.631 15.7215 256.216 18.0188 256.216 20.5413C256.216 21.8026 256.036 22.9287 255.676 23.9197Z" fill="#6B97C0"/>
<path d="M189.135 41.7577C189.315 42.7487 189 43.6496 188.189 44.4604C187.468 45.1811 186.567 45.5865 185.486 45.6766C184.856 47.4784 183.189 48.5595 180.486 48.9198C180.577 50.4514 180.261 51.7577 179.54 52.8387C178.82 53.8297 178.009 54.4153 177.108 54.5955C177.108 56.9378 176.613 59.3702 175.622 61.8927C175.802 62.6134 175.892 63.2441 175.892 63.7846C175.892 65.5864 175.532 67.208 174.811 68.6494C175.261 69.5503 175.486 70.5864 175.486 71.7575C175.486 73.289 175.216 74.8656 174.676 76.4872C175.486 77.5683 175.892 78.7845 175.892 80.1358C175.892 80.9466 175.667 81.8926 175.216 82.9737C175.486 83.5142 175.622 84.37 175.622 85.5412C175.622 87.5232 175.216 88.9646 174.405 89.8655C174.766 91.1268 174.946 92.1177 174.946 92.8385C174.946 93.5592 174.811 94.1898 174.541 94.7303C174.541 96.2619 173.955 97.4781 172.784 98.379C171.613 99.1898 170.216 99.5952 168.595 99.5952C167.063 99.5952 165.712 99.1898 164.541 98.379C163.46 97.4781 162.964 96.2619 163.054 94.7303C162.784 93.9195 162.649 93.0637 162.649 92.1628C162.649 90.2709 162.964 88.4691 163.595 86.7574C162.784 85.6763 162.378 84.5052 162.378 83.2439C162.378 82.4331 162.604 81.4872 163.054 80.4061C162.423 79.4151 162.108 78.289 162.108 77.0278C162.108 76.1269 162.288 75.3161 162.649 74.5953C163.009 73.8746 163.46 73.289 164 72.8386C162.739 71.3972 162.108 69.7305 162.108 67.8386C162.108 66.0368 162.694 64.5053 163.865 63.2441C163.505 62.7936 163.189 62.1179 162.919 61.2171C162.649 60.3162 162.514 59.4153 162.514 58.5144C162.514 57.3432 162.784 56.4874 163.324 55.9468C162.604 54.3252 162.243 52.4784 162.243 50.4063C162.243 48.6045 162.514 47.3883 163.054 46.7577C162.243 44.9559 161.838 43.2442 161.838 41.6226C161.838 39.8208 162.243 38.5145 163.054 37.7037C161.613 35.992 160.892 34.1001 160.892 32.0281C160.892 29.5056 161.973 27.6587 164.135 26.4876C165.216 25.947 166.297 25.6768 167.378 25.6768C169.09 25.6768 170.532 26.3975 171.703 27.8389C172.874 29.1903 173.459 30.8119 173.459 32.7037C173.459 33.6947 173.234 34.7308 172.784 35.8118C173.955 36.983 174.541 38.4695 174.541 40.2713C174.541 41.5325 174.45 42.5685 174.27 43.3793C174.991 40.7667 176.027 39.2352 177.378 38.7848C177.378 37.0731 177.919 35.4965 179 34.0551C180.081 32.6136 181.342 31.5326 182.784 30.8119C184.315 30.0911 185.576 29.8659 186.567 30.1362C188.82 27.7038 191.252 26.4876 193.865 26.4876C195.036 26.4876 196.072 26.7128 196.973 27.1632C197.784 26.5326 199 26.2173 200.621 26.2173C201.973 26.2173 203.234 26.4876 204.405 27.0281C205.576 27.4786 206.342 28.1993 206.702 29.1902C209.946 29.3704 212.243 30.7218 213.594 33.2443C214.765 33.3344 215.892 34.01 216.973 35.2713C218.144 36.5325 218.729 37.974 218.729 39.5956C218.729 40.3163 218.504 41.2172 218.054 42.2983C220.126 43.1091 221.162 44.6856 221.162 47.028C221.162 47.8388 221.117 48.4243 221.027 48.7847C222.198 49.4153 223.009 50.091 223.459 50.8117C224 51.4423 224.27 52.2532 224.27 53.2441C224.27 54.3252 224 55.7666 223.459 57.5684C224.54 58.3792 225.081 59.7306 225.081 61.6225C225.081 63.6044 224.585 65.0909 223.594 66.0819C224.405 67.4332 224.81 69.0999 224.81 71.0819C224.81 73.0638 224.36 74.6404 223.459 75.8115C224 78.5142 224.27 80.4061 224.27 81.4872C224.27 83.3791 223.864 84.6854 223.054 85.4061C223.774 87.0277 224.135 88.6042 224.135 90.1358C224.135 92.2078 223.639 93.7393 222.648 94.7303C222.738 96.1718 222.108 97.3429 220.756 98.2438C219.495 99.1447 218.054 99.5952 216.432 99.5952C215.171 99.5952 214.09 99.2799 213.189 98.6492C212.288 98.0186 211.838 97.1177 211.838 95.9465C211.117 94.2348 210.756 92.2979 210.756 90.1358C210.756 86.8025 211.567 84.37 213.189 82.8385C212.558 82.0277 211.973 80.7214 211.432 78.9196C210.982 77.0278 210.756 75.271 210.756 73.6494C210.756 71.3972 211.207 70.0008 212.108 69.4602C211.387 68.1089 211.027 66.7125 211.027 65.2711C211.027 63.6495 211.522 61.6675 212.513 59.3252C211.702 58.6945 211.027 57.7486 210.486 56.4874C209.946 55.2261 209.675 54.0099 209.675 52.8387C209.675 52.4784 209.765 51.9378 209.946 51.2171C208.955 50.4063 208.054 49.1 207.243 47.2982C206.522 45.4964 206.207 43.8748 206.297 42.4334C205.486 42.3433 204.675 42.073 203.865 41.6226C203.054 41.1721 202.423 40.5415 201.973 39.7307H200.486C198.955 39.7307 197.874 39.4154 197.243 38.7848C196.522 39.6857 195.306 40.4965 193.594 41.2172C191.973 41.8478 190.531 42.028 189.27 41.7577H189.135Z" fill="#6B97C0"/>
<path d="M103.383 47.1631C102.662 45.9919 102.302 44.8658 102.302 43.7847C102.302 42.1631 102.842 40.8118 103.923 39.7307C104.194 38.3794 104.824 37.1181 105.815 35.9469C106.806 34.6857 107.887 33.7397 109.059 33.1091C110.32 32.3884 111.311 32.1181 112.031 32.2983C112.662 31.3073 113.923 30.4064 115.815 29.5956C117.707 28.6947 119.464 28.2443 121.085 28.2443C121.446 28.2443 121.986 28.3344 122.707 28.5146C123.698 27.4335 125.004 26.8929 126.626 26.8929C127.887 26.8929 128.788 27.2533 129.329 27.974C130.5 27.1632 132.031 26.7578 133.923 26.7578C136.175 26.7578 138.157 27.2983 139.869 28.3794C141.671 29.4605 142.707 30.9019 142.977 32.7037C144.599 33.2443 145.815 34.1001 146.626 35.2713C147.527 36.3523 148.067 37.8839 148.247 39.8658C149.419 41.037 150.274 42.4334 150.815 44.055C151.356 45.5865 151.626 47.1631 151.626 48.7847C151.626 50.8567 151.265 52.5234 150.545 53.7847C151.175 54.6855 151.716 56.0369 152.166 57.8387C152.617 59.6405 152.842 61.3972 152.842 63.1089C152.842 63.8296 152.752 64.7305 152.572 65.8116C153.202 67.1629 153.518 68.0638 153.518 68.5143C153.518 68.7845 153.383 69.4152 153.112 70.4062C153.202 70.7665 153.292 71.217 153.383 71.7575C153.473 72.2079 153.518 72.7935 153.518 73.5142C153.518 74.8656 153.022 76.0818 152.031 77.1629C152.392 78.1539 152.572 79.3701 152.572 80.8115C152.572 82.7034 152.121 84.2349 151.22 85.4061C151.401 85.7664 151.491 86.352 151.491 87.1628C151.491 89.0547 150.725 90.6312 149.193 91.8925C148.833 93.1537 148.157 94.1447 147.166 94.8654C146.175 95.4961 145.094 95.8114 143.923 95.8114C142.752 95.8114 141.806 95.451 141.085 94.7303C138.743 95.7213 136.851 96.2168 135.41 96.2168C134.689 96.2168 134.148 96.1717 133.788 96.0816C131.446 96.8024 129.464 97.1627 127.842 97.1627C126.671 97.1627 125.049 96.9375 122.977 96.4871C121.716 97.2078 120.5 97.5681 119.329 97.5681C118.248 97.5681 117.257 97.2528 116.356 96.6222C115.905 96.7123 115.23 96.7573 114.329 96.7573C110.815 96.7573 108.113 95.1808 106.221 92.0276C102.797 90.0457 101.086 87.0727 101.086 83.1088C101.086 82.1178 101.131 81.352 101.221 80.8115C100.41 80.271 100.005 79.1448 100.005 77.4331C100.005 76.262 100.23 75.2259 100.68 74.325C100.32 72.7034 100.14 71.6674 100.14 71.217C100.14 68.6044 101.401 66.262 103.923 64.19C104.914 62.1179 106.041 60.7215 107.302 60.0008C108.653 59.2801 110.32 58.7396 112.302 58.3792C112.842 56.8477 114.104 55.8117 116.085 55.2711C118.067 54.7306 120.004 54.5504 121.896 54.7306C122.437 54.3702 123.203 54.0549 124.194 53.7847C125.185 53.4243 126.176 53.2441 127.166 53.2441C128.248 53.2441 129.194 53.4243 130.004 53.7847C130.184 53.6045 130.635 53.5144 131.356 53.5144C131.896 53.5144 132.437 53.5594 132.977 53.6495C133.518 53.7396 133.878 53.8747 134.058 54.0549C135.32 52.4333 136.806 51.6225 138.518 51.6225C139.058 51.6225 139.599 51.7576 140.139 52.0279V51.6225C140.139 50.091 140.455 49.0099 141.085 48.3793C140.184 48.109 139.193 47.3433 138.112 46.082C137.121 44.7307 136.536 43.5145 136.356 42.4334C134.914 41.8028 133.923 40.7667 133.383 39.3253C132.302 40.1361 131.04 40.5415 129.599 40.5415C128.608 40.5415 127.662 40.2712 126.761 39.7307C125.23 40.1811 124.239 40.3613 123.788 40.2712C122.527 41.1721 121.13 41.6226 119.599 41.6226C118.248 43.4244 116.671 44.2352 114.869 44.055C114.058 45.4964 112.932 46.7577 111.491 47.8387C110.14 48.9198 108.743 49.4604 107.302 49.4604C105.68 49.4604 104.374 48.6946 103.383 47.1631ZM110.815 77.298C111.896 78.3791 112.437 79.4151 112.437 80.4061C112.437 81.1268 112.257 82.0277 111.896 83.1088C112.257 83.1088 112.752 83.334 113.383 83.7844C114.104 84.1448 114.509 84.5502 114.599 85.0007C115.32 84.7304 116.221 84.5952 117.302 84.5952C119.284 84.5952 120.59 85.0457 121.221 85.9466C122.212 85.5862 123.248 85.4061 124.329 85.4061C126.04 85.4061 127.392 85.9015 128.383 86.8925C129.103 86.1718 130.275 85.5862 131.896 85.1358C133.608 84.6853 135.139 84.4601 136.491 84.4601C137.302 82.8385 138.743 81.8926 140.815 81.6223C140.995 80.9917 141.491 80.1809 142.302 79.1899C141.941 78.6493 141.626 77.9286 141.356 77.0277C141.085 76.1268 140.95 75.2259 140.95 74.325C140.95 72.4332 141.401 71.0368 142.302 70.1359C141.311 68.8746 140.815 67.3882 140.815 65.6765C140.815 64.5053 140.995 63.5143 141.356 62.7035C140.635 63.154 139.824 63.3792 138.923 63.3792C138.112 63.3792 137.437 63.0639 136.896 62.4332C136.085 63.244 134.959 63.6494 133.518 63.6494C132.617 63.6494 131.716 63.4242 130.815 62.9738C129.824 63.9648 128.608 64.4603 127.166 64.4603C126.716 64.4603 126.04 64.2801 125.139 63.9197C123.788 65.2711 122.572 65.6765 121.491 65.1359C120.95 66.3972 120.23 67.253 119.329 67.7035C118.518 68.1539 117.347 68.3791 115.815 68.3791C115.455 69.3701 114.824 70.1809 113.923 70.8116C113.113 71.4422 112.257 71.6674 111.356 71.4872C111.806 72.1179 112.031 72.8386 112.031 73.6494C112.031 75.0007 111.626 76.2169 110.815 77.298Z" fill="#6B97C0"/>
<path d="M85.9124 82.7021C86.8132 83.6931 87.2637 85.2246 87.2637 87.2967C87.2637 88.648 87.0385 89.9543 86.588 91.2156C86.2277 92.3867 85.7322 93.2426 85.1015 93.7831C85.3718 95.4948 84.9214 96.8912 83.7502 97.9723C82.579 99.0534 81.1827 99.5939 79.561 99.5939C78.48 99.5939 77.4439 99.3236 76.453 98.7831C75.462 98.2426 74.7413 97.3417 74.2908 96.0804C73.8404 94.8192 73.6151 93.4678 73.6151 92.0264C73.6151 90.0444 73.9305 88.4678 74.5611 87.2967C74.1106 86.4859 73.8854 85.3147 73.8854 83.7832C73.8854 82.0715 74.1557 80.3147 74.6962 78.513C74.0656 77.7922 73.7503 76.486 73.7503 74.5941C73.7503 72.1617 74.1106 70.3599 74.8314 69.1887C74.2908 67.9275 74.0206 66.7112 74.0206 65.5401C74.0206 63.9185 74.4259 62.2969 75.2368 60.6753C74.516 58.7834 74.1557 57.0717 74.1557 55.5402C74.1557 54.2789 74.4259 52.8375 74.9665 51.2159C74.0656 50.2249 73.6151 48.9636 73.6151 47.4321C73.6151 46.8015 73.6602 46.351 73.7503 46.0808C72.7593 44.9096 72.2638 43.5583 72.2638 42.0267C72.2638 41.0358 72.5341 40.0898 73.0746 39.1889C72.444 37.7475 72.1287 36.3511 72.1287 34.9998C72.1287 32.8376 72.6692 31.216 73.7503 30.1349C73.2097 28.8737 72.9395 27.3422 72.9395 25.5404C72.9395 24.0989 73.1647 23.0629 73.6151 22.4323C73.1647 22.162 72.8043 21.6665 72.5341 20.9458C72.2638 20.2251 72.1287 19.4143 72.1287 18.5134C72.1287 16.9819 72.489 15.7206 73.2097 14.7296C72.9395 14.0089 72.8043 13.063 72.8043 11.8918C72.8043 10.9909 72.8944 10.1801 73.0746 9.45939C71.9935 8.37832 71.453 7.11707 71.453 5.67564C71.453 4.14412 72.0836 2.83782 73.3449 1.75675C74.6962 0.585582 76.1827 0 77.8043 0C78.8854 0 79.8764 0.360359 80.7773 1.08108C81.6782 1.7117 82.3088 2.70268 82.6691 4.05403C84.0205 4.95492 84.6961 6.35131 84.6961 8.24318C84.6961 8.60354 84.6061 9.14408 84.4259 9.8648C85.507 10.9459 86.0475 12.3423 86.0475 14.054C86.0475 15.4954 85.597 16.6215 84.6961 17.4323C85.1466 17.7927 85.552 18.4233 85.9124 19.3242C86.2727 20.135 86.4529 21.0359 86.4529 22.0269C86.4529 23.6485 85.8673 24.9998 84.6961 26.0809C85.4169 27.0719 85.7772 28.2881 85.7772 29.7295C85.7772 31.171 85.507 32.3421 84.9664 33.243C85.3268 33.6034 85.507 34.5043 85.507 35.9457C85.507 36.7565 85.4169 37.6124 85.2367 38.5132C85.0565 39.4141 84.7862 40.0448 84.4259 40.4051C85.7772 41.5763 86.4529 43.0628 86.4529 44.8646C86.4529 45.8555 86.2727 46.7114 85.9124 47.4321C86.4529 48.2429 86.7232 49.4591 86.7232 51.0807C86.7232 53.1528 86.3628 54.8194 85.6421 56.0807C86.2727 57.3419 86.588 59.0086 86.588 61.0807C86.588 63.6032 86.1826 65.4049 85.3718 66.486C86.0024 67.3869 86.3178 68.513 86.3178 69.8644C86.3178 71.0355 86.0475 72.4319 85.507 74.0535C86.3178 74.9544 86.7232 76.3508 86.7232 78.2427C86.7232 79.8643 86.4529 81.3508 85.9124 82.7021Z" fill="#6B97C0"/>
<path d="M53.7834 15.27C54.5942 15.5403 55.1798 16.1258 55.5401 17.0267C55.9906 17.9276 56.1257 18.7835 55.9456 19.5943C57.1167 20.4952 57.6573 21.4411 57.5672 22.4321C57.5672 24.0537 56.4861 25.7654 54.3239 27.5672C54.5942 28.378 54.7293 29.1888 54.7293 29.9996C54.7293 31.2609 54.414 32.432 53.7834 33.5131C53.1528 34.5942 52.387 35.3599 51.4861 35.8104C51.2159 39.0536 50.2699 41.2158 48.6483 42.2968C48.378 43.2878 47.4771 44.1887 45.9456 44.9995C44.4141 45.7202 43.0177 46.0806 41.7565 46.0806C41.1258 46.6211 39.9997 47.1617 38.3781 47.7022C36.7565 48.1527 35.5403 48.2427 34.7295 47.9725C33.6484 49.4139 32.1619 50.1346 30.2701 50.1346C29.5493 50.1346 29.0538 50.0896 28.7836 49.9995C28.243 50.2698 27.5223 50.4049 26.6214 50.4049C25.6305 50.4049 24.5494 50.1797 23.3782 49.7292C21.9368 50.6301 19.0089 51.0806 14.5945 51.0806C14.9548 52.3418 15.135 53.2427 15.135 53.7832C15.135 54.8643 14.7747 55.8103 14.054 56.6211C15.0449 57.8823 15.5404 59.9994 15.5404 62.9724C15.5404 65.3147 15.3152 67.0714 14.8648 68.2426C15.9458 69.684 16.4864 71.5309 16.4864 73.7831C16.4864 75.7651 16.0359 77.6569 15.135 79.4587C15.6756 80.1795 16.081 81.2155 16.3512 82.5668C16.6215 83.9182 16.7566 85.3145 16.7566 86.756C16.7566 88.9181 16.4864 90.3596 15.9458 91.0803C16.126 92.3415 16.2161 93.2875 16.2161 93.9181C16.2161 97.7019 14.144 99.5937 9.99993 99.5937C8.10805 99.5937 6.66662 98.6478 5.67564 96.7559C4.77474 94.7739 4.32429 92.4767 4.32429 89.8641C4.32429 87.2515 4.68465 85.2245 5.40537 83.783C4.50447 82.1614 4.05403 80.1795 4.05403 77.8371C4.05403 76.8461 4.14412 75.6299 4.32429 74.1885C3.51349 73.1074 3.10809 70.9002 3.10809 67.5669C3.10809 64.7742 3.37836 62.9724 3.91889 62.1616C3.46844 60.9904 3.24322 59.3237 3.24322 57.1616C3.24322 55.0895 3.46844 53.6031 3.91889 52.7022C3.46844 51.6211 3.24322 50.7202 3.24322 49.9995C3.24322 49.2788 3.37835 48.6031 3.64862 47.9725C2.83782 46.7112 2.43242 45.1797 2.43242 43.3779C2.43242 42.1167 2.61259 41.1707 2.97295 40.5401C2.61259 39.7293 2.43242 38.8734 2.43242 37.9725C2.43242 36.9816 2.61259 36.1708 2.97295 35.5401C2.07206 34.1888 1.62161 33.1077 1.62161 32.2969C1.62161 31.396 1.98197 30.4501 2.70268 29.4591C2.16215 28.378 1.89188 27.387 1.89188 26.4861C1.89188 25.0447 2.43242 23.8735 3.51349 22.9726C2.07206 21.6213 1.35134 19.9997 1.35134 18.1078C1.35134 17.7475 1.44143 17.0267 1.62161 15.9457C0.540537 15.225 0 13.8736 0 11.8916C0 10.4502 0.315313 9.09887 0.945939 7.83762C1.57657 6.57637 2.34233 5.94574 3.24322 5.94574C3.33331 4.86467 3.87385 4.05386 4.86483 3.51333C5.9459 2.8827 7.16211 2.56738 8.51345 2.56738C9.77471 2.56738 10.9008 2.83765 11.8918 3.37819C12.9729 3.82864 13.6035 4.45927 13.7837 5.27007C15.5855 4.45927 16.9819 4.05386 17.9728 4.05386C18.5134 4.05386 18.8737 4.14395 19.0539 4.32413C19.3242 4.23404 19.9548 4.05386 20.9458 3.78359C21.9368 3.42323 22.8377 3.24305 23.6485 3.24305C24.8196 3.24305 25.9908 3.60341 27.162 4.32413C27.7025 3.87368 28.4683 3.51332 29.4593 3.24305C30.4502 2.97279 31.4863 2.83766 32.5673 2.83766C33.5583 2.83766 34.3691 2.97279 34.9998 3.24305C35.3601 3.15296 35.8556 3.10792 36.4862 3.10792C37.8376 3.10792 39.1889 3.46828 40.5403 4.189C41.8916 4.90971 42.9276 5.72052 43.6483 6.62141C45.27 6.53132 46.5312 6.84664 47.4321 7.56735C48.4231 8.19798 49.2339 9.41418 49.8645 11.216C50.8555 11.4862 51.8014 12.0268 52.7023 12.8376C53.6933 13.6484 54.0537 14.4592 53.7834 15.27ZM13.2432 40.5401C13.7837 40.0896 14.6846 39.8644 15.9458 39.8644C17.4774 39.8644 18.4683 40.0896 18.9188 40.5401C19.5494 39.9095 20.7656 39.5942 22.5674 39.5942C24.3692 39.5942 25.5404 39.9095 26.0809 40.5401C26.7115 40.0896 27.6575 39.8644 28.9187 39.8644C29.7295 39.8644 30.3601 39.9996 30.8106 40.2698C31.8016 39.1888 32.8827 38.6482 34.0538 38.6482C34.6844 38.6482 35.1799 38.6933 35.5403 38.7833C35.7205 38.0626 36.7115 37.2518 38.5132 36.3509C40.315 35.3599 41.7114 34.9996 42.7024 35.2699C42.7024 34.5491 42.9727 33.6032 43.5132 32.432C44.0537 31.2609 44.5943 30.4951 45.1348 30.1348C44.7745 29.7744 44.5943 29.0537 44.5943 27.9726C44.5943 26.7114 44.7745 25.315 45.1348 23.7834C45.5853 22.1618 46.0357 21.1258 46.4862 20.6754C42.8826 18.6934 41.0357 16.8466 40.9457 15.1349C39.5042 14.8646 37.8376 14.1439 35.9457 12.9727C33.4232 14.234 31.3061 14.8646 29.5944 14.8646C28.6034 14.8646 27.207 14.6394 25.4052 14.1889C23.6034 15.3601 21.6665 15.9457 19.5945 15.9457C18.3332 15.9457 17.2972 15.6754 16.4864 15.1349C16.3963 15.4051 15.7657 15.7204 14.5945 16.0808C13.5134 16.4412 12.7477 16.5763 12.2972 16.4862C12.3873 17.3871 12.7026 18.5132 13.2432 19.8646C13.8738 21.3961 14.1891 22.7474 14.1891 23.9186C14.1891 25.0897 13.7837 26.2159 12.9729 27.2969C13.3332 28.0177 13.5134 29.2339 13.5134 30.9456C13.5134 32.387 13.3332 33.423 12.9729 34.0537C13.7837 34.8645 14.1891 36.0356 14.1891 37.5671C14.1891 38.5581 13.8738 39.5491 13.2432 40.5401Z" fill="#6B97C0"/>
</svg>
