<svg width="50" height="42" viewBox="0 0 50 42" fill="none" xmlns="http://www.w3.org/2000/svg">
<path d="M0.476562 0.495605H20.23V19.3408C20.23 25.1432 18.7415 29.9365 15.7646 33.7207C12.8382 37.5049 8.54948 40.2043 2.89844 41.8188L0.552246 34.7046C2.46956 34.0487 4.05892 33.3675 5.32031 32.6611C6.58171 31.9043 7.59082 31.0718 8.34766 30.1636C9.10449 29.2049 9.63428 28.1201 9.93701 26.9092C10.2397 25.6982 10.3911 24.2855 10.3911 22.6709H0.476562V0.495605ZM29.9175 0.495605H49.6709V19.3408C49.6709 25.1432 48.1825 29.9365 45.2056 33.7207C42.2791 37.5049 37.9904 40.2043 32.3394 41.8188L29.9932 34.7046C31.9105 34.0487 33.4998 33.3675 34.7612 32.6611C36.0226 31.9043 37.0317 31.0718 37.7886 30.1636C38.5454 29.2049 39.0752 28.1201 39.3779 26.9092C39.6807 25.6982 39.832 24.2855 39.832 22.6709H29.9175V0.495605Z" fill="#85A5F2"/>
</svg>
