<svg width="50" height="42" viewBox="0 0 50 42" fill="none" xmlns="http://www.w3.org/2000/svg">
<path d="M49.8657 41.5483H30.1123V22.7031C30.1123 16.9007 31.5755 12.1074 34.502 8.32324C37.4788 4.53906 41.7928 1.83968 47.4438 0.225098L49.79 7.33936C47.8727 7.99528 46.2834 8.70166 45.022 9.4585C43.7606 10.1649 42.7515 10.9974 41.9946 11.9561C41.2378 12.8643 40.708 13.9238 40.4053 15.1348C40.1025 16.3457 39.9512 17.7585 39.9512 19.373H49.8657V41.5483ZM20.4248 41.5483H0.671387V22.7031C0.671387 16.9007 2.1346 12.1074 5.06104 8.32324C8.03792 4.53906 12.3519 1.83968 18.0029 0.225098L20.3491 7.33936C18.4318 7.99528 16.8424 8.70166 15.5811 9.4585C14.3197 10.1649 13.3105 10.9974 12.5537 11.9561C11.7969 12.8643 11.2671 13.9238 10.9644 15.1348C10.6616 16.3457 10.5103 17.7585 10.5103 19.373H20.4248V41.5483Z" fill="#85A5F2"/>
</svg>
