<svg width="221" height="100" viewBox="0 0 221 100" fill="none" xmlns="http://www.w3.org/2000/svg">
<path d="M192.215 85.6247C186.799 85.6247 181.937 84.3399 177.632 81.7705C173.396 79.2705 170.062 75.7288 167.632 71.1455C165.201 66.5622 163.986 61.3191 163.986 55.4163C163.986 49.5136 165.201 44.2705 167.632 39.6872C170.062 35.1038 173.396 31.5622 177.632 29.0622C181.937 26.4927 186.799 25.208 192.215 25.208C197.632 25.208 202.493 26.4927 206.799 29.0622C211.104 31.5622 214.472 35.1038 216.903 39.6872C219.333 44.2705 220.549 49.5136 220.549 55.4163C220.549 61.3191 219.333 66.5622 216.903 71.1455C214.472 75.7288 211.104 79.2705 206.799 81.7705C202.493 84.3399 197.632 85.6247 192.215 85.6247ZM192.215 76.0413C195.479 76.0413 198.431 75.1733 201.069 73.4372C203.778 71.701 205.896 69.2705 207.424 66.1455C208.951 63.0205 209.715 59.4441 209.715 55.4163C209.715 51.3886 208.951 47.8122 207.424 44.6872C205.896 41.5622 203.778 39.1316 201.069 37.3955C198.431 35.6594 195.479 34.7913 192.215 34.7913C188.951 34.7913 186 35.6594 183.361 37.3955C180.722 39.1316 178.639 41.5622 177.111 44.6872C175.583 47.8122 174.819 51.3886 174.819 55.4163C174.819 59.4441 175.583 63.0205 177.111 66.1455C178.639 69.2705 180.722 71.701 183.361 73.4372C186 75.1733 188.951 76.0413 192.215 76.0413Z" fill="#C9B6E4"/>
<path d="M127.247 85.6247C123.844 85.6247 120.65 84.9302 117.663 83.5413C114.677 82.2219 112.108 80.4163 109.955 78.1247V94.7913C109.955 96.3191 109.504 97.5691 108.601 98.5413C107.698 99.5135 106.309 99.9996 104.434 99.9996C102.698 99.9996 101.379 99.4788 100.476 98.4371C99.5732 97.4649 99.1218 96.2497 99.1218 94.7913V30.833C99.1218 29.3052 99.5385 28.09 100.372 27.1872C101.205 26.215 102.559 25.7288 104.434 25.7288C106.309 25.7288 107.698 26.215 108.601 27.1872C109.504 28.1594 109.955 29.3747 109.955 30.833V32.9163C114.469 27.7775 120.233 25.208 127.247 25.208C132.455 25.208 137.038 26.458 140.997 28.958C145.025 31.458 148.115 34.9997 150.268 39.583C152.49 44.1663 153.601 49.4441 153.601 55.4163C153.601 61.3885 152.49 66.6663 150.268 71.2497C148.115 75.833 145.025 79.3747 140.997 81.8747C137.038 84.3747 132.455 85.6247 127.247 85.6247ZM126.622 76.2497C129.747 76.2497 132.525 75.3469 134.955 73.5413C137.386 71.8052 139.295 69.3747 140.684 66.2497C142.073 63.0552 142.768 59.4441 142.768 55.4163C142.768 51.3886 142.073 47.8122 140.684 44.6872C139.295 41.4927 137.386 39.0274 134.955 37.2913C132.525 35.4858 129.747 34.583 126.622 34.583C121.761 34.583 117.768 36.4233 114.643 40.1038C111.518 43.7844 109.955 48.8886 109.955 55.4163C109.955 61.9441 111.518 67.0483 114.643 70.7288C117.768 74.4094 121.761 76.2497 126.622 76.2497Z" fill="#C9B6E4"/>
<path d="M79.8242 85.1041C78.0881 85.1041 76.7687 84.5833 75.8659 83.5416C74.9631 82.5694 74.5117 81.3541 74.5117 79.8958V30.3125C74.5117 28.7847 74.9284 27.5694 75.7617 26.6667C76.595 25.6944 77.9492 25.2083 79.8242 25.2083C81.6992 25.2083 83.0881 25.6944 83.9909 26.6667C84.8937 27.6389 85.345 28.8542 85.345 30.3125V79.8958C85.345 81.4236 84.8937 82.6736 83.9909 83.6458C83.0881 84.618 81.6992 85.1041 79.8242 85.1041ZM79.9284 13.9583C77.9145 13.9583 76.2478 13.2986 74.9284 11.9792C73.6089 10.6597 72.9492 8.99305 72.9492 6.97916C72.9492 4.96527 73.6089 3.29861 74.9284 1.97916C76.2478 0.659721 77.9145 0 79.9284 0C81.9423 0 83.6089 0.659721 84.9284 1.97916C86.3173 3.29861 87.0117 4.96527 87.0117 6.97916C87.0117 8.99305 86.3173 10.6597 84.9284 11.9792C83.6089 13.2986 81.9423 13.9583 79.9284 13.9583Z" fill="#C9B6E4"/>
<path d="M9.27083 85.1035C7.53472 85.1035 6.25 84.5827 5.41666 83.541C4.58333 82.5688 4.13194 81.3535 4.0625 79.8952C3.78472 73.9229 3.64583 68.7146 3.64583 64.2702C3.64583 54.5479 4.02778 44.9299 4.79167 35.416C5.625 25.9021 6.875 17.7424 8.54166 10.9368H4.47917C3.29861 10.9368 2.25694 10.5202 1.35417 9.68684C0.451389 8.85351 0 7.67295 0 6.14518C0 4.6174 0.451389 3.43685 1.35417 2.60351C2.25694 1.77018 3.29861 1.35352 4.47917 1.35352H32.3958C42.1875 1.35352 49.6875 3.61046 54.8958 8.12435C60.1041 12.5688 62.7083 18.6452 62.7083 26.3535C62.7083 32.2563 61.1458 37.291 58.0208 41.4577C54.9653 45.6243 50.4514 48.541 44.4792 50.2077C48.2986 53.9577 51.8403 58.2979 55.1041 63.2285C58.368 68.0896 60.9722 73.2285 62.9166 78.6452C63.125 79.2702 63.2291 79.8952 63.2291 80.5202C63.2291 81.909 62.6736 83.0202 61.5625 83.8535C60.5208 84.6868 59.3055 85.1035 57.9166 85.1035C56.8055 85.1035 55.7986 84.8257 54.8958 84.2702C54.0625 83.7146 53.4375 82.8813 53.0208 81.7702C50.868 76.0063 47.8819 70.3118 44.0625 64.6868C40.243 59.0618 36.4583 54.7216 32.7083 51.666H32.3958H14.6875C14.5486 57.4993 14.4792 61.7354 14.4792 64.3743C14.4792 70.2077 14.5833 75.3118 14.7917 79.6868C14.8611 81.2146 14.4097 82.4993 13.4375 83.541C12.4653 84.5827 11.0764 85.1035 9.27083 85.1035ZM32.3958 42.0827C38.7847 42.0827 43.6111 40.6938 46.875 37.916C50.2083 35.1382 51.875 31.2841 51.875 26.3535C51.875 21.4924 50.2083 17.7077 46.875 14.9993C43.6111 12.291 38.7847 10.9368 32.3958 10.9368H19.2708C17.3264 18.5757 15.9375 28.9577 15.1042 42.0827H32.3958Z" fill="#C9B6E4"/>
</svg>
