<svg width="565" height="77" viewBox="0 0 565 77" fill="none" xmlns="http://www.w3.org/2000/svg">
<path d="M502.629 18.1685L516.225 17.8076C516.546 20.8557 516.786 24.0642 516.947 27.4331C517.187 30.8021 517.308 34.1309 517.308 37.4196C517.388 40.7083 517.428 43.8767 517.428 46.9248V74.8389C516.867 74.9993 515.904 75.1598 514.54 75.3202C513.257 75.5608 511.974 75.6811 510.69 75.6811C507.803 75.6811 505.717 75.1999 504.434 74.2373C503.23 73.1945 502.629 71.3897 502.629 68.8229V18.1685ZM564.593 58.4755L550.877 58.8364C550.235 52.6601 549.874 46.6441 549.794 40.7886C549.714 34.8528 549.674 29.1176 549.674 23.5829V1.92544C550.395 1.76502 551.358 1.56448 552.561 1.32384C553.845 1.08321 555.208 0.962891 556.652 0.962891C559.46 0.962891 561.465 1.48427 562.668 2.52703C563.951 3.5698 564.593 5.33449 564.593 7.82108V58.4755ZM564.593 53.5424V45.9623V73.0341C563.631 73.8362 562.347 74.4779 560.743 74.9592C559.139 75.5207 557.294 75.8015 555.208 75.8015C552.722 75.8015 550.476 75.4004 548.47 74.5983C546.545 73.7961 544.901 72.0315 543.537 69.3042L525.85 37.6603C524.888 35.7351 523.845 33.7298 522.722 31.6443C521.679 29.5588 520.677 27.5133 519.714 25.508C518.752 23.5027 517.869 21.6578 517.067 19.9733L502.629 23.3423V4.45215C503.511 3.32917 504.795 2.48693 506.479 1.92544C508.244 1.36395 510.129 1.08321 512.134 1.08321C514.54 1.08321 516.746 1.48427 518.752 2.2864C520.757 3.08853 522.441 4.8131 523.805 7.46012L541.492 39.1041C542.535 41.0292 543.577 43.0345 544.62 45.1201C545.743 47.2056 546.746 49.251 547.628 51.2563C548.591 53.2616 549.433 55.1065 550.155 56.791L564.593 53.5424Z" fill="#999F54"/>
<path d="M437.769 26.5903H452.689V74.1164C452.127 74.2768 451.205 74.4773 449.921 74.7179C448.638 74.9586 447.315 75.0789 445.951 75.0789C443.464 75.0789 441.459 74.357 439.935 72.9132C438.491 71.3891 437.769 69.4239 437.769 67.0175V26.5903ZM452.689 50.1728L437.769 50.0525V9.9862C437.769 7.4996 438.491 5.53438 439.935 4.09055C441.459 2.64672 443.464 1.9248 445.951 1.9248C447.315 1.9248 448.638 2.04512 449.921 2.28576C451.205 2.52641 452.127 2.72694 452.689 2.88736V50.1728ZM445.951 43.6756V31.6437H482.167C482.568 32.2052 482.929 33.0073 483.25 34.05C483.651 35.0928 483.852 36.2158 483.852 37.419C483.852 39.5045 483.37 41.0687 482.408 42.1114C481.445 43.1542 480.122 43.6756 478.437 43.6756H445.951ZM445.951 75.0789V62.9267H486.378C486.699 63.4882 487.02 64.2903 487.341 65.333C487.742 66.3758 487.942 67.5389 487.942 68.8223C487.942 70.9078 487.461 72.472 486.499 73.5147C485.536 74.5575 484.212 75.0789 482.528 75.0789H445.951ZM445.951 14.1974V1.9248H485.777C486.178 2.4863 486.539 3.28843 486.859 4.33119C487.18 5.37396 487.341 6.49694 487.341 7.70013C487.341 9.78566 486.859 11.3899 485.897 12.5129C485.015 13.6359 483.691 14.1974 481.926 14.1974H445.951Z" fill="#999F54"/>
<path d="M372.91 26.5903H387.829V74.1164C387.268 74.2768 386.345 74.4773 385.062 74.7179C383.779 74.9586 382.455 75.0789 381.091 75.0789C378.605 75.0789 376.599 74.357 375.075 72.9132C373.632 71.3891 372.91 69.4239 372.91 67.0175V26.5903ZM387.829 50.1728L372.91 50.0525V9.9862C372.91 7.4996 373.632 5.53438 375.075 4.09055C376.599 2.64672 378.605 1.9248 381.091 1.9248C382.455 1.9248 383.779 2.04512 385.062 2.28576C386.345 2.52641 387.268 2.72694 387.829 2.88736V50.1728ZM381.091 43.6756V31.6437H417.307C417.709 32.2052 418.07 33.0073 418.39 34.05C418.791 35.0928 418.992 36.2158 418.992 37.419C418.992 39.5045 418.511 41.0687 417.548 42.1114C416.586 43.1542 415.262 43.6756 413.578 43.6756H381.091ZM381.091 75.0789V62.9267H421.519C421.839 63.4882 422.16 64.2903 422.481 65.333C422.882 66.3758 423.083 67.5389 423.083 68.8223C423.083 70.9078 422.602 72.472 421.639 73.5147C420.676 74.5575 419.353 75.0789 417.668 75.0789H381.091ZM381.091 14.1974V1.9248H420.917C421.318 2.4863 421.679 3.28843 422 4.33119C422.321 5.37396 422.481 6.49694 422.481 7.70013C422.481 9.78566 422 11.3899 421.037 12.5129C420.155 13.6359 418.832 14.1974 417.067 14.1974H381.091Z" fill="#999F54"/>
<path d="M316.043 37.2986H326.029C330.762 37.2986 334.532 36.2558 337.339 34.1703C340.147 32.0847 341.551 28.9965 341.551 24.9057C341.551 20.895 340.147 17.847 337.339 15.7614C334.532 13.6759 330.401 12.6331 324.946 12.6331C323.342 12.6331 321.778 12.7133 320.254 12.8738C318.73 12.954 317.326 13.1144 316.043 13.355V37.2986ZM327.112 49.2102H300.883V7.94067C300.883 6.49684 301.284 5.37386 302.086 4.57173C302.968 3.7696 304.091 3.1279 305.455 2.64662C308.022 1.8445 311.03 1.2429 314.479 0.84183C318.008 0.440766 321.578 0.240234 325.187 0.240234C335.775 0.240234 343.676 2.44609 348.89 6.85779C354.184 11.1893 356.831 17.1651 356.831 24.7854C356.831 29.5981 355.588 33.8494 353.101 37.5392C350.695 41.229 347.286 44.1167 342.874 46.2022C338.462 48.2075 333.208 49.2102 327.112 49.2102ZM325.067 45.36L338.061 41.6301C340.067 44.2771 342.112 46.9642 344.198 49.6914C346.363 52.3385 348.409 54.9454 350.334 57.5122C352.339 59.9988 354.104 62.2849 355.628 64.3704C357.232 66.4559 358.475 68.1805 359.358 69.5441C358.796 71.5494 357.713 73.1136 356.109 74.2366C354.585 75.3595 352.901 75.921 351.056 75.921C348.649 75.921 346.764 75.3997 345.401 74.3569C344.117 73.2339 342.874 71.75 341.671 69.9051L325.067 45.36ZM300.883 43.9161H316.163V74.7178C315.521 74.9585 314.519 75.159 313.155 75.3194C311.872 75.5601 310.508 75.6804 309.064 75.6804C306.177 75.6804 304.091 75.159 302.808 74.1163C301.524 72.9933 300.883 71.1484 300.883 68.5816V43.9161Z" fill="#999F54"/>
<path d="M284.355 39.4647V64.9724C284.355 66.8975 283.914 68.4215 283.031 69.5445C282.229 70.6675 280.906 71.7103 279.061 72.6728C276.975 73.7958 273.967 74.7584 270.037 75.5605C266.187 76.3626 262.296 76.7637 258.366 76.7637C250.746 76.7637 243.928 75.4402 237.912 72.7931C231.976 70.0659 227.283 65.8948 223.834 60.2799C220.385 54.5848 218.66 47.3256 218.66 38.5022C218.66 29.9996 220.425 22.9008 223.955 17.2057C227.484 11.5105 232.176 7.21916 238.032 4.33149C243.968 1.44383 250.505 0 257.644 0C262.457 0 266.628 0.521384 270.157 1.56415C273.767 2.60692 276.534 3.97054 278.459 5.655C280.464 7.33947 281.467 9.18437 281.467 11.1897C281.467 12.7137 281.026 14.0773 280.144 15.2805C279.341 16.4837 278.419 17.4062 277.376 18.0479C275.21 16.6843 272.644 15.441 269.676 14.318C266.708 13.1148 263.058 12.5132 258.727 12.5132C254.074 12.5132 249.863 13.5159 246.093 15.5212C242.403 17.5265 239.516 20.4944 237.43 24.4248C235.345 28.275 234.302 32.9675 234.302 38.5022C234.302 44.4379 235.345 49.3309 237.43 53.1811C239.516 56.9511 242.403 59.7586 246.093 61.6034C249.783 63.4483 253.954 64.3708 258.606 64.3708C260.933 64.3708 263.058 64.1703 264.983 63.7692C266.989 63.3681 268.553 62.8869 269.676 62.3254V45.24H254.034C253.713 44.6785 253.353 43.8764 252.951 42.8336C252.631 41.7107 252.47 40.5877 252.47 39.4647C252.47 37.299 252.951 35.7348 253.914 34.7723C254.877 33.7295 256.2 33.2081 257.885 33.2081H278.098C279.943 33.2081 281.427 33.7696 282.55 34.8926C283.753 36.0156 284.355 37.5396 284.355 39.4647Z" fill="#999F54"/>
<path d="M142.024 18.1685L155.62 17.8076C155.941 20.8557 156.181 24.0642 156.342 27.4331C156.582 30.8021 156.703 34.1309 156.703 37.4196C156.783 40.7083 156.823 43.8767 156.823 46.9248V74.8389C156.261 74.9993 155.299 75.1598 153.935 75.3202C152.652 75.5608 151.368 75.6811 150.085 75.6811C147.197 75.6811 145.112 75.1999 143.828 74.2373C142.625 73.1945 142.024 71.3897 142.024 68.8229V18.1685ZM203.988 58.4755L190.272 58.8364C189.63 52.6601 189.269 46.6441 189.189 40.7886C189.109 34.8528 189.068 29.1176 189.068 23.5829V1.92544C189.79 1.76502 190.753 1.56448 191.956 1.32384C193.24 1.08321 194.603 0.962891 196.047 0.962891C198.854 0.962891 200.86 1.48427 202.063 2.52703C203.346 3.5698 203.988 5.33449 203.988 7.82108V58.4755ZM203.988 53.5424V45.9623V73.0341C203.026 73.8362 201.742 74.4779 200.138 74.9592C198.534 75.5207 196.689 75.8015 194.603 75.8015C192.117 75.8015 189.871 75.4004 187.865 74.5983C185.94 73.7961 184.296 72.0315 182.932 69.3042L165.245 37.6603C164.283 35.7351 163.24 33.7298 162.117 31.6443C161.074 29.5588 160.072 27.5133 159.109 25.508C158.146 23.5027 157.264 21.6578 156.462 19.9733L142.024 23.3423V4.45215C142.906 3.32917 144.189 2.48693 145.874 1.92544C147.639 1.36395 149.524 1.08321 151.529 1.08321C153.935 1.08321 156.141 1.48427 158.146 2.2864C160.152 3.08853 161.836 4.8131 163.2 7.46012L180.887 39.1041C181.93 41.0292 182.972 43.0345 184.015 45.1201C185.138 47.2056 186.141 49.251 187.023 51.2563C187.986 53.2616 188.828 55.1065 189.55 56.791L203.988 53.5424Z" fill="#999F54"/>
<path d="M96.6182 14.3181H96.0166C94.9738 17.2058 93.8107 20.4945 92.5273 24.1843C91.3241 27.8741 90.0407 31.7243 88.6771 35.7349C87.3135 39.6654 86.0301 43.4755 84.8269 47.1653L83.1424 54.6251C82.6612 56.1491 82.1398 57.8336 81.5783 59.6785C81.097 61.5234 80.5355 63.4084 79.8938 65.3335C79.3323 67.1784 78.7708 68.943 78.2094 70.6275C77.7281 72.312 77.2869 73.7959 76.8858 75.0793C76.0837 75.32 75.2014 75.5205 74.2388 75.6809C73.3565 75.9216 72.2736 76.0419 70.9902 76.0419C68.4234 76.0419 66.378 75.5606 64.8539 74.5981C63.4101 73.5553 62.6882 72.0312 62.6882 70.0259C62.6882 69.1436 62.8085 68.2211 63.0491 67.2586C63.37 66.296 63.6908 65.2132 64.0117 64.01C64.8138 61.3629 65.8967 58.0742 67.2603 54.1438C68.6239 50.1331 70.1079 45.8017 71.7121 41.1493C73.3164 36.497 74.9607 31.8045 76.6452 27.072C78.4099 22.3394 80.0542 17.9277 81.5783 13.8368C83.1023 9.66578 84.4258 6.17652 85.5488 3.36907C86.5114 2.80758 87.9953 2.2862 90.0006 1.80492C92.006 1.32365 94.0514 1.08301 96.1369 1.08301C98.8642 1.08301 101.351 1.48407 103.597 2.2862C105.923 3.08833 107.367 4.37173 107.928 6.13641C109.613 10.5481 111.417 15.6015 113.343 21.2966C115.268 26.9917 117.233 32.9275 119.238 39.1039C121.244 45.2803 123.169 51.2962 125.014 57.1518C126.858 63.0073 128.503 68.3013 129.947 73.0339C129.144 73.9162 128.022 74.6382 126.578 75.1996C125.214 75.7611 123.61 76.0419 121.765 76.0419C119.118 76.0419 117.193 75.5606 115.99 74.5981C114.867 73.5553 113.984 71.9911 113.343 69.9056L108.409 54.1438L106.845 46.4434C105.562 42.3525 104.279 38.3419 102.995 34.4114C101.792 30.4008 100.629 26.6709 99.5059 23.2217C98.3829 19.7726 97.4203 16.8047 96.6182 14.3181ZM76.4046 57.5127L82.0596 45.6011H112.139L114.425 57.5127H76.4046Z" fill="#999F54"/>
<path d="M24.9061 64.3708C29.5584 64.3708 33.0076 63.4483 35.2535 61.6034C37.4995 59.6783 38.6225 57.3121 38.6225 54.5046C38.6225 52.018 37.7401 50.0127 35.9754 48.4887C34.291 46.9646 31.6841 45.6411 28.1547 44.5181L20.3339 42.1117C16.3233 40.7481 12.7939 39.2241 9.74586 37.5396C6.77798 35.8551 4.45181 33.6894 2.76734 31.0424C1.16309 28.3151 0.360957 24.9863 0.360957 21.0559C0.360957 14.5586 2.76734 9.425 7.58011 5.655C12.4731 1.885 19.1308 0 27.5531 0C32.045 0 36.0156 0.481278 39.4647 1.44383C42.9941 2.32617 45.7614 3.56947 47.7667 5.17372C49.8523 6.77798 50.895 8.66299 50.895 10.8287C50.895 12.3528 50.494 13.7164 49.6918 14.9196C48.9699 16.0426 48.0475 16.965 46.9245 17.6869C45.0796 16.3233 42.5529 15.1602 39.3444 14.1977C36.1359 13.1549 32.6466 12.6335 28.8766 12.6335C24.7055 12.6335 21.497 13.3955 19.2511 14.9196C17.0051 16.4436 15.8821 18.4891 15.8821 21.0559C15.8821 23.1414 16.6442 24.8259 18.1682 26.1093C19.7725 27.3927 22.1788 28.5157 25.3874 29.4782L32.3659 31.5236C39.2642 33.6092 44.6384 36.4567 48.4886 40.0663C52.3389 43.5957 54.264 48.4485 54.264 54.6249C54.264 61.2024 51.7373 66.5365 46.6839 70.6274C41.7107 74.7182 34.5717 76.7637 25.267 76.7637C20.3741 76.7637 16.0426 76.2423 12.2726 75.1995C8.50256 74.1568 5.49458 72.7129 3.24862 70.868C1.08287 69.0231 0 66.9376 0 64.6114C0 62.8467 0.56149 61.3227 1.68447 60.0393C2.80745 58.7559 4.01064 57.7933 5.29405 57.1516C7.37958 58.9163 10.0667 60.5607 13.3554 62.0847C16.6442 63.6088 20.4944 64.3708 24.9061 64.3708Z" fill="#999F54"/>
</svg>
