<svg width="448" height="100" viewBox="0 0 448 100" fill="none" xmlns="http://www.w3.org/2000/svg">
<path d="M398.785 0L415.108 28.0507L431.432 0H446.698L423.455 38.0877L447.279 76.9149H431.854L415.108 48.336L398.362 76.9149H382.884L406.762 38.0877L383.465 0H398.785Z" fill="black"/>
<path d="M371.263 0V76.9149H358.003V0H371.263Z" fill="black"/>
<path d="M346.857 66.4025V76.9149H308.241V66.4025H346.857ZM311.939 0V76.9149H298.679V0H311.939Z" fill="black"/>
<path d="M252.351 0V76.9149H239.091V0H252.351ZM283.73 33.6503V44.1627H248.97V33.6503H283.73ZM288.114 0V10.5652H248.97V0H288.114Z" fill="black"/>
<path d="M190.227 31.9596V76.9147H177.496V19.7567H189.488L190.227 31.9596ZM187.956 46.2226L183.835 46.1698C183.87 42.1198 184.434 38.4044 185.526 35.0235C186.653 31.6426 188.202 28.7372 190.174 26.3072C192.182 23.8772 194.577 22.0106 197.359 20.7076C200.141 19.3693 203.24 18.7002 206.656 18.7002C209.403 18.7002 211.886 19.0876 214.105 19.8624C216.359 20.6019 218.278 21.8169 219.863 23.5074C221.483 25.1978 222.715 27.3989 223.56 30.1107C224.406 32.7872 224.828 36.08 224.828 39.9892V76.9147H212.044V39.9363C212.044 37.1894 211.639 35.0235 210.829 33.4387C210.055 31.8187 208.91 30.6741 207.396 30.005C205.917 29.3007 204.068 28.9485 201.849 28.9485C199.665 28.9485 197.711 29.4063 195.985 30.322C194.26 31.2376 192.798 32.4878 191.601 34.0726C190.438 35.6574 189.54 37.4887 188.906 39.5665C188.273 41.6444 187.956 43.8631 187.956 46.2226Z" fill="black"/>
<path d="M113.788 48.9696V47.7546C113.788 43.6342 114.386 39.8131 115.584 36.2913C116.781 32.7344 118.507 29.6528 120.761 27.0467C123.05 24.4054 125.832 22.3628 129.107 20.9189C132.418 19.4398 136.151 18.7002 140.306 18.7002C144.497 18.7002 148.23 19.4398 151.506 20.9189C154.816 22.3628 157.616 24.4054 159.905 27.0467C162.194 29.6528 163.937 32.7344 165.135 36.2913C166.332 39.8131 166.931 43.6342 166.931 47.7546V48.9696C166.931 53.0901 166.332 56.9111 165.135 60.4329C163.937 63.9546 162.194 67.0362 159.905 69.6775C157.616 72.2836 154.834 74.3262 151.558 75.8053C148.283 77.2492 144.568 77.9712 140.412 77.9712C136.221 77.9712 132.47 77.2492 129.16 75.8053C125.885 74.3262 123.103 72.2836 120.814 69.6775C118.524 67.0362 116.781 63.9546 115.584 60.4329C114.386 56.9111 113.788 53.0901 113.788 48.9696ZM126.519 47.7546V48.9696C126.519 51.5405 126.783 53.9705 127.311 56.2596C127.839 58.5488 128.667 60.5562 129.794 62.2818C130.921 64.0075 132.365 65.3633 134.126 66.3494C135.887 67.3355 137.982 67.8286 140.412 67.8286C142.772 67.8286 144.814 67.3355 146.54 66.3494C148.301 65.3633 149.745 64.0075 150.872 62.2818C151.999 60.5562 152.826 58.5488 153.354 56.2596C153.918 53.9705 154.2 51.5405 154.2 48.9696V47.7546C154.2 45.2189 153.918 42.8242 153.354 40.5702C152.826 38.2811 151.981 36.2561 150.819 34.4952C149.692 32.7344 148.248 31.3609 146.487 30.3748C144.761 29.3535 142.701 28.8428 140.306 28.8428C137.912 28.8428 135.834 29.3535 134.073 30.3748C132.347 31.3609 130.921 32.7344 129.794 34.4952C128.667 36.2561 127.839 38.2811 127.311 40.5702C126.783 42.8242 126.519 45.2189 126.519 47.7546Z" fill="black"/>
<path d="M83.4126 77.9712C79.1865 77.9712 75.3654 77.2845 71.9493 75.911C68.5684 74.5023 65.6806 72.5477 63.2858 70.0473C60.9262 67.5468 59.1125 64.6062 57.8447 61.2253C56.5768 57.8444 55.9429 54.1994 55.9429 50.2903V48.1772C55.9429 43.7046 56.5945 39.6546 57.8975 36.0272C59.2005 32.3998 61.0142 29.3007 63.3386 26.7298C65.663 24.1237 68.4099 22.1339 71.5795 20.7604C74.7491 19.3869 78.1828 18.7002 81.8806 18.7002C85.9658 18.7002 89.5404 19.3869 92.6043 20.7604C95.6682 22.1339 98.2039 24.0709 100.211 26.5713C102.254 29.0365 103.768 31.9772 104.754 35.3933C105.776 38.8094 106.286 42.5776 106.286 46.6981V52.1392H62.1236V43.0002H93.7137V41.9966C93.6432 39.7074 93.1854 37.5592 92.3402 35.5518C91.5302 33.5444 90.28 31.9244 88.5895 30.6917C86.8991 29.4591 84.6452 28.8428 81.8278 28.8428C79.7147 28.8428 77.8306 29.3007 76.1754 30.2163C74.5554 31.0967 73.1995 32.3822 72.1077 34.0726C71.016 35.7631 70.1708 37.8057 69.5721 40.2005C69.0086 42.56 68.7269 45.2189 68.7269 48.1772V50.2903C68.7269 52.7907 69.0614 55.1151 69.7306 57.2633C70.4349 59.3764 71.4562 61.2253 72.7945 62.8101C74.1328 64.3949 75.7528 65.6451 77.6545 66.5607C79.5562 67.4412 81.7221 67.8814 84.1521 67.8814C87.216 67.8814 89.9454 67.2651 92.3402 66.0325C94.735 64.7999 96.8128 63.0566 98.5737 60.8027L105.283 67.3003C104.05 69.0964 102.448 70.8221 100.475 72.4773C98.5032 74.0973 96.0908 75.4179 93.2382 76.4392C90.4208 77.4605 87.1456 77.9712 83.4126 77.9712Z" fill="black"/>
<path d="M22.504 70.6813L38.0349 19.7568H51.664L28.7375 85.6311C28.2092 87.0398 27.5225 88.5718 26.6772 90.227C25.832 91.8822 24.7227 93.4494 23.3492 94.9285C22.0109 96.4429 20.3381 97.6579 18.3307 98.5735C16.3233 99.5244 13.8933 99.9998 11.0407 99.9998C9.91372 99.9998 8.82198 99.8942 7.76545 99.6829C6.74414 99.5068 5.77566 99.3131 4.86001 99.1018L4.80718 89.3818C5.15936 89.417 5.58197 89.4522 6.07501 89.4874C6.60328 89.5226 7.02588 89.5403 7.34284 89.5403C9.45589 89.5403 11.2168 89.2761 12.6255 88.7479C14.0342 88.2548 15.1787 87.4448 16.0592 86.3179C16.9748 85.1909 17.7496 83.6765 18.3835 81.7748L22.504 70.6813ZM13.7348 19.7568L27.3111 62.5461L29.5827 75.9639L20.7607 78.2354L0 19.7568H13.7348Z" fill="black"/>
</svg>
